<svg xmlns="http://www.w3.org/2000/svg" viewBox="0 0 341.52 37.91"><title>logo-dark</title><g id="Layer_2" data-name="Layer 2"><g id="Calque_1" data-name="Calque 1"><path d="M45.34.79,28.59,37.12H16.75L0,.79H9.16L22.27,31.6h.79L36.18.79Z"/><path d="M87.75,16.27V37.12H79.38L80,25.91l-.39-.08C77.48,33.1,70,37.91,60.26,37.91c-7.89,0-12.55-3.16-12.55-9.16,0-5.13,3.55-7.9,12-9.32,5.53-.95,14.53-1.74,19.67-4.58-.24-5.77-4.5-8.93-11.61-8.93-8.85,0-14,5-11.69,11.46L48.57,19c-4-10.67,4.9-19,19.12-19C79.93,0,87.75,6.08,87.75,16.27Zm-8.37,3.24V17.69c-2.84,2.93-8.93,4.11-15.17,5.06-6,.87-8.21,2.21-8.21,5S58.37,32,63,32C72,32,79.38,26.46,79.38,19.51Z"/><path d="M94,19c0-11.06,9.4-19,21.8-19,9.79,0,17.69,5,20.14,12.8l-7.82,3.31c-1.26-6-6-9.71-12.4-9.71-7.58,0-13.11,5.13-13.11,12.4,0,7.58,5.77,12.72,13.27,12.72,6.55,0,11.37-3.95,12.56-9.72l8.37,1.26c-1.74,8.85-10,14.85-20.93,14.85C103.31,37.91,94,29.94,94,19Z"/><path d="M181.74,16.27V37.12h-8.37L174,25.91l-.4-.08c-2.13,7.27-9.63,12.08-19.35,12.08-7.9,0-12.56-3.16-12.56-9.16,0-5.13,3.56-7.9,12-9.32,5.53-.95,14.53-1.74,19.67-4.58-.24-5.77-4.5-8.93-11.61-8.93-8.85,0-14,5-11.69,11.46L142.56,19c-3.95-10.67,4.9-19,19.12-19C173.92,0,181.74,6.08,181.74,16.27Zm-8.37,3.24V17.69c-2.85,2.93-8.93,4.11-15.17,5.06-6,.87-8.21,2.21-8.21,5S152.36,32,156.94,32C165.94,32,173.37,26.46,173.37,19.51Z"/><path d="M217.68,23.3l-7.74-1.66c5.45-9.16,4.58-15.24-1.5-15.24-5.69,0-9.4,5.13-9.4,13.27V37.12h-8.46V.79H199l-.64,10.58.56.08C200.77,4.27,205.67,0,212.38,0,222.73,0,225.26,10.27,217.68,23.3Z"/><path d="M292.24,15.64V37.12h-8.61V16.43c0-6.24-3.4-10-8.93-10-6.47,0-10.35,4.66-10.35,12.48V37.12h-8.53V16.43c0-6.24-3.39-10-8.92-10-6.48,0-10.35,4.66-10.35,12.48V37.12H228.1V.79h8.45l-.63,10.58.47.08C238,4.19,243,0,250.3,0s12.4,4.19,13.11,12.48l.47.08C265.22,4.66,270.52,0,278.1,0,286.87,0,292.24,5.92,292.24,15.64Z"/><path d="M341.52,23.77c-2,8.61-10.19,14.14-20.93,14.14-13,0-22-7.9-22-19.19C298.55,7.74,307,0,319.48,0c11.93,0,20,7.19,19.67,18.17H306.92c0,8,5.38,13.35,13.75,13.35,7,0,12.32-3.95,13.82-10.19Zm-34-9.79,22.82-.16c-1.18-5.37-5.21-8.37-11-8.37C313.4,5.45,309.06,8.77,307.48,14Z"/></g></g></svg>