<?xml version="1.0" encoding="UTF-8"?>
<svg width="80px" height="20px" viewBox="0 0 80 20" version="1.1" xmlns="http://www.w3.org/2000/svg" xmlns:xlink="http://www.w3.org/1999/xlink">
    <!-- Generator: Sketch 64 (93537) - https://sketch.com -->
    <title>menu</title>
    <desc>Created with Sketch.</desc>
    <g id="Page-1" stroke="none" stroke-width="1" fill="none" fill-rule="evenodd">
        <g id="menu" fill="#FFFFFF" fill-rule="nonzero">
            <path d="M21.292,0.639998 C22.636,0.639998 23.68,0.915999 24.424,1.468 C25.168,1.996 25.684,2.836 25.972,3.988 C26.284,5.139998 26.44,6.712 26.44,8.704 L26.44,19 L24.064,19 L24.064,8.704 C24.064,6.544 23.836,5.008 23.38,4.096 C22.948,3.16 22.132,2.692 20.932,2.692 C18.964,2.692 17.452,4.012 16.396,6.652 C15.364,9.292 14.848,12.784 14.848,17.128 C14.848,17.944 14.86,18.568 14.884,19 L12.472,19 L12.472,8.704 C12.472,6.544 12.244,5.008 11.788,4.096 C11.356,3.16 10.54,2.692 9.34,2.692 C7.372,2.692 5.86,4.012 4.804,6.652 C3.772,9.292 3.256,12.784 3.256,17.128 C3.256,17.944 3.268,18.568 3.292,19 L0.88,19 L0.88,1 L3.256,1 L1.996,14.608 L2.644,14.608 C2.692,12.736 2.86,10.888 3.148,9.064 C3.436,7.24 3.904,5.656 4.552,4.312 C5.224,2.992 5.956,2.056 6.748,1.504 C7.54,0.927998 8.524,0.639998 9.7,0.639998 C11.044,0.639998 12.076,0.903998 12.796,1.432 C13.54,1.96 14.056,2.788 14.344,3.916 C14.656,5.02 14.824,6.544 14.848,8.488 C15.16,6.904 15.592,5.512 16.144,4.312 C16.816,2.992 17.548,2.056 18.34,1.504 C19.132,0.927998 20.116,0.639998 21.292,0.639998 Z M36.9604,17.2 C38.1844,17.2 39.2164,16.9 40.0564,16.3 C40.9204,15.676 41.4604,14.896 41.6764,13.96 L43.8004,14.896 C43.3924,16.288 42.6244,17.38 41.4964,18.172 C40.3684,18.964 38.8564,19.36 36.9604,19.36 C35.2804,19.36 33.8524,18.952 32.6764,18.136 C31.5004,17.296 30.6124,16.18 30.0124,14.788 C29.4364,13.372 29.1484,11.776 29.1484,10 C29.1484,7.24 29.8084,4.996 31.1284,3.268 C32.4484,1.516 34.3924,0.639998 36.9604,0.639998 C38.4244,0.639998 39.6964,0.999999 40.7764,1.72 C41.8564,2.44 42.6844,3.4 43.2604,4.6 C43.8364,5.776 44.1244,7.048 44.1244,8.416 C44.1244,9.184 44.0044,10.024 43.7644,10.936 L31.6684,10.936 C31.7884,12.88 32.2804,14.416 33.1444,15.544 C34.0324,16.648 35.3044,17.2 36.9604,17.2 Z M36.9604,2.872 C33.6484,2.872 31.8844,4.936 31.6684,9.064 L41.8204,8.812 C41.8684,7.18 41.4964,5.788 40.7044,4.636 C39.9124,3.46 38.6644,2.872 36.9604,2.872 Z M55.8278,0.639998 C57.8678,0.639998 59.3198,1.264 60.1838,2.512 C61.0718,3.76 61.5158,5.824 61.5158,8.704 L61.5158,19 L59.1398,19 L59.1398,8.704 C59.1398,6.639998 58.8398,5.128 58.2398,4.168 C57.6398,3.184 56.7158,2.692 55.4678,2.692 C53.4998,2.692 51.9878,4.012 50.9318,6.652 C49.8998,9.292 49.3838,12.784 49.3838,17.128 C49.3838,17.944 49.3958,18.568 49.4198,19 L47.0078,19 L47.0078,1 L49.3838,1 L48.1238,14.608 L48.7718,14.608 C48.8198,12.736 48.9878,10.888 49.2758,9.064 C49.5638,7.24 50.0318,5.656 50.6798,4.312 C51.3518,2.992 52.0838,2.056 52.8758,1.504 C53.6678,0.927998 54.6518,0.639998 55.8278,0.639998 Z M77.486,19 L78.53,12.34 L77.81,12.34 C77.618,14.476 76.982,16.18 75.902,17.452 C74.822,18.724 73.466,19.36 71.834,19.36 C69.554,19.36 67.922,18.676 66.938,17.308 C65.954,15.94 65.462,13.684 65.462,10.54 L65.462,1 L67.91,1 L67.91,10.144 C67.91,12.64 68.246,14.452 68.918,15.58 C69.614,16.684 70.682,17.236 72.122,17.236 C73.466,17.236 74.522,16.816 75.29,15.976 C76.082,15.112 76.646,13.72 76.982,11.8 C77.342,9.88 77.522,7.264 77.522,3.952 C77.522,2.68 77.51,1.696 77.486,1 L79.934,1 L79.934,19 L77.486,19 Z" id="Shape"></path>
        </g>
    </g>
</svg>